<svg xmlns="http://www.w3.org/2000/svg" xmlns:xlink="http://www.w3.org/1999/xlink" id="Ebene_1" x="0px" y="0px" viewBox="0 0 437 122.2" xml:space="preserve">
<g>
	<g>
		<path fill="none" d="M248,50.5c0-9.1-7.4-16.5-16.5-16.5c-9.1,0-16.5,7.4-16.5,16.5c0,9.1,7.4,16.5,16.5,16.5    C240.6,67,248,59.6,248,50.5z"></path>
		<path fill="none" d="M385.3,51.8c0,1.9,1.7,2.6,3.6,2.6c4,0,5.7-2.4,5.7-4v-3c-1.2,0.8-3.5,0.8-5.5,1.2    C387,49,385.3,49.6,385.3,51.8z"></path>
		<path fill="none" d="M321.3,41.1c-3.2,0-5.8,2.4-5.8,6.7c0,4.2,2.6,6.6,5.8,6.6c3.2,0,5.8-2.4,5.8-6.6    C327.1,43.5,324.5,41.1,321.3,41.1z"></path>
		<path fill="none" d="M323.8,75.7c-3.2,0-5.8,2.4-5.8,6.7c0,4.2,2.6,6.6,5.8,6.6c3.2,0,5.8-2.4,5.8-6.6    C329.5,78,327,75.7,323.8,75.7z"></path>
		<path fill="none" d="M139,67c9.1,0,16.5-7.4,16.5-16.5c0-9.1-7.4-16.5-16.5-16.5c-9.1,0-16.5,7.4-16.5,16.5    C122.6,59.6,129.9,67,139,67z"></path>
		<path fill="none" d="M421.2,41.1c-3.2,0-5.1,2.3-5.3,5h10.7C426.4,43.3,424.3,41.1,421.2,41.1z"></path>
		<path fill="#FFFFFF" d="M421.4,38.5c-5.1,0-8.7,3.9-8.7,9.1c0.2,5.4,3,9.2,8.9,9.2c4.2,0,7.1-2.1,7.9-6h-3    c-0.5,2.3-2.3,3.4-4.8,3.4c-4.1,0-5.9-2.7-5.8-5.8h13.9C430,44.3,428,38.5,421.4,38.5z M415.9,46c0.2-2.7,2.1-5,5.3-5    c3,0,5.2,2.2,5.4,5H415.9z"></path>
		<polygon fill="#FFFFFF" points="372.8,53.3 372.8,53.3 368.9,38.9 365.6,38.9 361.8,53.3 361.7,53.3 357.5,38.9 354.2,38.9     360.1,56.5 363.4,56.5 367.2,42.5 367.2,42.5 371,56.5 374.2,56.5 380.2,38.9 377,38.9   "></polygon>
		<path fill="#FFFFFF" d="M388.3,46.6c-3.2,0.6-6.3,1.4-6.3,5.4c0,3.5,2.8,4.9,6.1,4.9c2.6,0,4.8-0.8,6.5-2.7c0,1.9,1,2.7,2.6,2.7    c1,0,1.7-0.2,2.2-0.5v-2.2c-0.4,0.1-0.7,0.2-0.9,0.2c-1,0-1-0.6-1-2v-9c0-4.1-3.6-4.8-7-4.8c-4.1,0-7.7,1.5-7.9,5.9h3    c0.1-2.6,2-3.3,4.6-3.3c1.9,0,4.1,0.4,4.1,2.9C394.6,46.2,391.7,46,388.3,46.6z M394.6,50.4c0,1.6-1.7,4-5.7,4    c-1.9,0-3.6-0.7-3.6-2.6c0-2.1,1.7-2.8,3.7-3.2c2-0.3,4.3-0.4,5.5-1.2V50.4z"></path>
		<path fill="#FFFFFF" d="M321.3,38.5c-5.9,0-9,4-9,9.2c0,5.1,3.1,9.2,9,9.2c5.9,0,9-4,9-9.2C330.3,42.6,327.2,38.5,321.3,38.5z     M321.3,54.4c-3.2,0-5.8-2.4-5.8-6.6c0-4.3,2.6-6.7,5.8-6.7c3.2,0,5.8,2.4,5.8,6.7C327.1,52,324.5,54.4,321.3,54.4z"></path>
		<path fill="#FFFFFF" d="M345.7,33.7v5.3h-3.2v2.5h3.2v11.2c0,3.2,1.3,3.8,4.4,3.8h2.3V54h-1.4c-1.9,0-2.3-0.2-2.3-1.6V41.5h3.7    v-2.5h-3.7v-5.3H345.7z"></path>
		<path fill="#FFFFFF" d="M335.2,36.3v2.6h-3.1v2.5h3.1v15h3.1v-15h3.6v-2.5h-3.6v-2.4c0-1.5,0.9-2,2.3-2c0.5,0,1.2,0.1,1.7,0.2    v-2.5c-0.6-0.2-1.4-0.3-2-0.3C337,32,335.2,33.5,335.2,36.3z"></path>
		<path fill="#FFFFFF" d="M299.8,54.4c-3.9,0-7.5-1.8-7.5-5.8h-3.2c0,5.9,4.9,8.6,10.6,8.6c4.7,0,10-2.1,10-7.2c0-4.8-4.1-6.1-8.2-7    c-4.1-0.9-8.2-1.3-8.2-4.3c0-3.2,2.9-4.1,5.8-4.1c3.5,0,6,1.5,6.4,5h3.2c-0.2-5.3-4.2-7.7-9.4-7.7c-4.7,0-9.3,2.2-9.3,7.1    c0,4.4,4.1,5.6,8.2,6.4c4.1,0.8,8.2,1.4,8.2,4.8C306.3,53.4,302.9,54.4,299.8,54.4z"></path>
		<path fill="#FFFFFF" d="M402.2,38.9v17.6h3.1v-7.8c0-4.4,1.8-7.1,6.7-7.1v-3.1c-3.3-0.1-5.3,1.3-6.8,4.1h-0.1v-3.7H402.2z"></path>
		<path fill="#FFFFFF" d="M400.2,76.1h3.2v11.2c0,3.2,1.3,3.8,4.4,3.8h2.3v-2.5h-1.4c-1.9,0-2.3-0.2-2.3-1.6V76.1h3.7v-2.5h-3.7    v-5.3h-3v5.3h-3.2V76.1z"></path>
		<path fill="#FFFFFF" d="M363.2,88.9c-2.5,0-4.9-0.8-5-3.4h-3.1c0.2,4.3,3.7,5.9,7.9,5.9c3.8,0,7.9-1.4,7.9-5.5c0-3.4-3-4.3-6.1-5    c-2.8-0.6-6.1-1-6.1-3.1c0-1.8,2.1-2.2,4-2.2c2,0,4.1,0.7,4.3,3h3.1c-0.3-4.3-3.5-5.5-7.6-5.5c-3.2,0-6.9,1.5-6.9,5    c0,3.4,3.1,4.3,6.1,5c3.1,0.6,6.1,1,6.1,3.3C367.7,88.5,365.1,88.9,363.2,88.9z"></path>
		<path fill="#FFFFFF" d="M339.3,76.3L339.3,76.3l-0.1-2.8h-2.9v17.6h3.1v-9.9c0-3.2,1.8-5.5,5.5-5.5c2.3,0,3.8,1.4,3.8,3.5v11.9    h3.1V79.5c0-3.8-1.5-6.4-6.4-6.4C342.7,73.1,340.6,74.1,339.3,76.3z"></path>
		<path fill="#FFFFFF" d="M323.8,73.1c-5.9,0-9,4-9,9.2c0,5.1,3.1,9.2,9,9.2c5.9,0,9-4,9-9.2C332.8,77.2,329.7,73.1,323.8,73.1z     M323.8,88.9c-3.2,0-5.8-2.4-5.8-6.6c0-4.3,2.6-6.7,5.8-6.7c3.2,0,5.8,2.4,5.8,6.7C329.5,86.6,327,88.9,323.8,88.9z"></path>
		<rect x="394.4" y="66.8" fill="#FFFFFF" width="3" height="24.2"></rect>
		<path fill="#FFFFFF" d="M377.3,85.4V73.5h-3.1v11.5c0,3.8,1.5,6.4,6.4,6.4c2.7,0,4.7-1,6-3.2h0.1v2.8h2.9V73.5h-3.1v9.9    c0,3.2-1.8,5.5-5.5,5.5C378.8,88.9,377.3,87.5,377.3,85.4z"></path>
		<path fill="#FFFFFF" d="M300.9,91.6c6.5,0,10.5-3.7,11.1-9.7h-3.4c-0.3,4-2.9,7-7.4,7c-6.1,0-8.7-4.6-8.7-10.1    c0-5.1,2.6-9.8,8.7-9.8c3.6,0,6.5,1.7,7.2,5.2h3.4c-0.8-5.2-5.2-7.9-10.6-7.9c-7.9,0-12.1,5.7-12.1,12.8    C289.1,86.1,293,91.6,300.9,91.6z"></path>
		<path fill="#FFFFFF" d="M244.8,92.3l0.3-12.9l8,12.9h21.3V50.1h0c-0.2-23.5-19.3-42.5-42.9-42.5c-23.7,0-42.9,19.2-42.9,42.9    c0,23.7,19.2,42.9,42.9,42.9C236.2,93.4,240.3,93.1,244.8,92.3z M215,50.5c0-9.1,7.4-16.5,16.5-16.5c9.1,0,16.5,7.4,16.5,16.5    c0,9.1-7.4,16.5-16.5,16.5C222.4,67,215,59.6,215,50.5z"></path>
		<path fill="#FFFFFF" d="M133.7,93c1.7,0.2,3.5,0.3,5.3,0.3c23.7,0,42.9-19.2,42.9-42.9c0-23.7-19.2-42.9-42.9-42.9    S96.1,26.8,96.1,50.5v66.3h28.6l0.9-36.9L133.7,93z M122.6,50.5c0-9.1,7.4-16.5,16.5-16.5c9.1,0,16.5,7.4,16.5,16.5    c0,9.1-7.4,16.5-16.5,16.5C129.9,67,122.6,59.6,122.6,50.5z"></path>
		<path fill="#FFFFFF" d="M47.5,93.4c20.6,0,37.8-14.5,41.9-33.9H61.3c-2.9,4.5-8,7.4-13.8,7.4c-9.1,0-16.5-7.4-16.5-16.5    c0-9.1,7.4-16.5,16.5-16.5c5.8,0,10.8,3,13.8,7.4h28.2C85.3,22.1,68.1,7.6,47.5,7.6C23.8,7.6,4.6,26.8,4.6,50.5    C4.6,74.2,23.8,93.4,47.5,93.4z"></path>
	</g>
</g>
</svg>